<svg width="1749" height="592" viewBox="0 0 1749 592" fill="none" xmlns="http://www.w3.org/2000/svg">
<path fill-rule="evenodd" clip-rule="evenodd" d="M139.832 124.725C138.89 125.099 136.683 125.436 134.928 125.475C133.173 125.513 131.459 125.995 131.119 126.545C130.779 127.095 129.732 127.545 128.792 127.545C125.796 127.545 119.91 132.33 117.414 136.796C114.97 141.169 112.907 147.969 112.635 152.545C112.158 160.596 112.546 368.81 113.072 387.045C115.559 473.213 115.717 475.051 121.228 482.277C125.254 487.555 127.951 488.864 133.668 488.314C141.84 487.529 146.62 481.457 148.522 469.443C149.079 465.924 150.019 446.395 150.611 426.045C152.18 372.035 153.796 360.557 161.197 350.854C163.838 347.392 172.723 342.545 176.43 342.545C184.674 342.545 194.956 348.916 201.565 358.12C205.85 364.086 212.692 381.591 234.614 442.671C244.304 469.672 246.238 474.044 251.196 480.161C258.078 488.65 270 490.307 273.752 483.296C277.552 476.196 276.501 468.899 267.304 438.545C257.803 407.189 246.14 366.184 244.264 357.545C241.032 342.653 242.206 333.522 249.1 319.916C251.015 316.137 252.59 312.64 252.6 312.146C252.611 311.652 254.245 309.668 256.233 307.737C261.447 302.674 267.829 292.192 274.007 278.545C278.406 268.828 282.322 240.688 281.801 222.545C281.303 205.237 275.829 177.204 272.037 172.545C271.366 171.72 269.434 168.103 267.745 164.507C264.667 157.953 251.263 142.704 245.619 139.334C227.801 128.696 220.037 126.457 195.619 124.916C181.379 124.017 141.956 123.882 139.832 124.725ZM358.591 124.812C355.403 125.272 351.954 126.577 350.007 128.062C348.217 129.428 346.357 130.545 345.874 130.545C344.525 130.545 341.188 135.465 338.078 142.04L335.268 147.981L335.393 238.013C335.462 287.531 335.976 340.645 336.536 356.045C337.095 371.445 337.824 399.795 338.155 419.045C339.048 470.947 340.22 478.338 348.791 486.081C356.631 493.164 358.27 493.346 417.119 493.656C473.933 493.955 475.078 493.833 482.601 486.677C485.988 483.455 486.619 482.225 486.619 478.846C486.619 473.732 483.615 470.359 475.863 466.768C470.194 464.142 469.738 464.098 441.119 463.43C418.508 462.902 410.807 462.38 406.162 461.063C379.267 453.438 372.111 436.639 374.578 386.915C375.662 365.065 377.093 356.647 381.202 347.961C386.124 337.557 391.433 333.367 405.296 328.945C411.963 326.819 416.147 326.315 433.619 325.534C456.487 324.512 460.12 323.8 465.197 319.342C473.603 311.962 473.767 303.055 465.624 296.203C461.034 292.34 456.809 291.483 437.616 290.517C404.646 288.858 394.109 285.424 385.493 273.53C383.948 271.397 382.382 268.39 382.014 266.848C381.645 265.307 380.95 263.543 380.47 262.929C377.332 258.919 375.998 213.136 378.565 197.545C380.228 187.443 386.446 174.904 391.458 171.546C396.831 167.945 398.537 167.13 404.619 165.259C412.735 162.763 417.933 162.291 441.119 161.946C468.291 161.542 471.49 161.208 478.369 158.059C490.208 152.639 494.432 144.832 489.683 137.148C486.475 131.958 477.518 126.367 470.214 124.997C465.008 124.02 365.238 123.855 358.591 124.812ZM1005.51 126.045C1001.17 127.208 997.123 128.986 995.835 130.295C994.616 131.533 993.169 132.545 992.619 132.545C992.069 132.545 991.619 133.15 991.619 133.89C991.619 134.63 990.772 136.001 989.737 136.938C986.794 139.601 984.491 149.536 984.545 159.328C984.572 164.122 984.591 169.395 984.587 171.045C984.288 297.08 985.423 459.43 986.673 469.39C988.331 482.609 995.291 491.306 1006.96 494.742C1012.39 496.339 1102.74 496.455 1146.12 494.92C1174.44 493.918 1177.63 493.626 1183.04 491.549C1194.26 487.239 1199.67 479.046 1205.18 458.045C1208.72 444.545 1215.27 430.845 1220.83 425.277C1234.73 411.377 1267.66 407.734 1288.62 417.778C1299.54 423.011 1309.06 436.861 1315.62 457.045C1319.81 469.934 1324.24 478.342 1328.09 480.688C1331.79 482.949 1337.41 483.084 1340.4 480.984C1346.47 476.738 1347.05 468.19 1342.62 448.856C1339.56 435.556 1337.15 423.086 1326.58 366.045C1323.32 348.445 1318.14 321.895 1315.08 307.045C1312.01 292.195 1308.38 274.195 1307.01 267.045C1304.54 254.154 1302.74 245.376 1295.99 213.545C1294.07 204.47 1291.65 192.545 1290.62 187.045C1289.58 181.545 1288.28 175.695 1287.73 174.045C1287.17 172.395 1286.03 167.2 1285.18 162.501C1283.44 152.88 1280.28 144.127 1276.23 137.712C1272.51 131.829 1262.61 126.98 1256.32 127.959C1246.9 129.423 1236.15 140.846 1234.9 150.738C1234.6 153.107 1234 155.495 1233.57 156.045C1233.15 156.595 1232.48 158.845 1232.09 161.045C1231.7 163.245 1230.76 167.502 1230 170.505C1229.24 173.508 1228.62 177.7 1228.62 179.821C1228.62 181.941 1228.09 184.659 1227.44 185.861C1226.8 187.062 1225.93 189.62 1225.51 191.545C1225.1 193.47 1224.03 197.97 1223.13 201.545C1222.24 205.12 1221.35 209.395 1221.15 211.045C1220.58 215.816 1218.84 224.902 1218.17 226.594C1217.43 228.47 1212.73 249.842 1212.13 254.045C1211.57 258.01 1209.93 266.104 1207.58 276.545C1206.53 281.22 1205.37 287.745 1205.01 291.045C1204.64 294.345 1203.91 297.89 1203.38 298.923C1202.85 299.956 1202.05 303.106 1201.6 305.923C1201.15 308.74 1200.03 314.195 1199.11 318.045C1196.79 327.675 1192.06 351.347 1191.01 358.545C1190.73 360.47 1189.63 365.42 1188.58 369.545C1187.52 373.67 1184.83 386.495 1182.59 398.045C1180.35 409.595 1177.36 423.095 1175.95 428.045C1171.27 444.485 1163.83 455.737 1155.12 459.58C1149.55 462.034 1137.22 463.907 1132.26 463.051C1129.98 462.658 1113.27 461.986 1095.12 461.556C1059.84 460.721 1056.45 460.273 1044.36 454.849C1037.58 451.808 1033.43 447.448 1029.6 439.344C1025.42 430.507 1024.32 418.646 1024.86 388.545C1025.28 365.532 1025.54 362.362 1027.59 356.045C1028.83 352.195 1030.66 347.45 1031.65 345.5C1033.68 341.507 1040.93 334.453 1045.26 332.266C1050.25 329.74 1066.6 327.474 1082.62 327.085C1091.14 326.878 1100.42 326.398 1103.22 326.018C1109.82 325.123 1117.45 320.948 1120.34 316.647C1124.46 310.512 1122.69 299.838 1116.92 295.958C1108.64 290.396 1104.66 289.668 1079.12 289.049C1066.84 288.751 1059.56 288.125 1056.21 287.079C1053.51 286.235 1050.45 285.545 1049.41 285.545C1048.37 285.545 1044.38 283.046 1040.55 279.991C1034.8 275.403 1033.08 273.306 1030.65 267.946C1029.03 264.376 1027.18 258.888 1026.53 255.75C1025.18 249.181 1024.62 211.722 1025.76 203.545C1027.56 190.537 1028.71 186.135 1031.6 181.072C1036.85 171.91 1044.81 166.581 1056.62 164.336C1059.64 163.761 1063.02 162.935 1064.12 162.5C1065.22 162.065 1076.69 161.73 1089.62 161.757C1122.47 161.825 1125.49 161.28 1133.61 153.817C1137.4 150.33 1137.62 149.81 1137.62 144.37C1137.62 135.92 1135.36 131.941 1128.63 128.574C1125.6 127.055 1120.87 125.48 1118.12 125.074C1115.37 124.669 1090.58 124.271 1063.04 124.191C1015.86 124.053 1012.53 124.16 1005.51 126.045ZM565.619 125.57C556.162 126.001 553.319 126.511 549.619 128.44C542.75 132.021 536.923 137.172 533.875 142.357C531.495 146.405 531.131 148.069 531.206 154.545C531.255 158.67 531.822 165.87 532.467 170.545C534.523 185.448 535.763 273.607 535.189 364.045C534.886 411.895 534.377 455.735 534.058 461.467C533.338 474.42 534.634 478.414 541.699 485.023C550.007 492.794 553.368 493.794 574.119 494.666C595.337 495.558 622.866 494.349 634.119 492.032C664.454 485.786 685.068 467.526 693.935 439.045C697.114 428.834 700.367 409.538 701.606 393.545C702.863 377.308 702.879 237.015 701.627 215.442C699.563 179.904 693.495 162.478 677.619 146.494C661.737 130.504 644.41 126.135 593.619 125.312C584.544 125.165 571.944 125.281 565.619 125.57ZM786.119 125.882C782.819 126.582 779.067 127.73 777.781 128.433C773.59 130.722 767.522 136.819 765.297 140.977C763.179 144.933 763.119 146.006 763.119 180.045C763.119 315.708 763.931 464.151 764.705 469.854C765.213 473.599 766.353 478.099 767.238 479.854C772.887 491.055 783.532 493.632 791.45 485.714C798.565 478.599 798.738 477.21 799.23 423.045C799.491 394.241 800.102 372.845 800.758 369.545C804.445 350.98 813.184 341.619 826.88 341.567C838.095 341.524 847.637 348.834 854.647 362.841C856.838 367.217 865.96 393.032 875.16 420.884C884.272 448.473 892.879 473.014 894.288 475.42C897.625 481.119 903.253 487.304 906.744 489.11C910.449 491.026 917.161 490.928 920.579 488.909C924.961 486.321 926.872 482.135 926.847 475.179C926.824 468.657 923.032 456.023 901.598 391.045C890.462 357.287 888.669 348.294 890.62 335.989C892.133 326.443 895.04 320.589 905.362 306.293C910.238 299.54 915.202 292.221 916.393 290.03C922.489 278.812 927.899 262.364 929.217 251.045C930.349 241.323 929.979 214.574 928.588 205.545C927.953 201.42 927.204 196.245 926.923 194.045C926.643 191.845 926.01 189.618 925.517 189.095C925.023 188.573 924.621 187.223 924.624 186.095C924.63 183.762 922.082 175.741 919.684 170.545C914.908 160.193 902.418 145.327 893.108 138.913C888.55 135.773 873.672 129.569 869.133 128.916C866.925 128.598 862.869 127.663 860.119 126.839C853.189 124.762 794.949 124.009 786.119 125.882ZM1412.26 130.977C1403.08 134.325 1399.12 141.364 1397.48 157.209C1396.16 170.075 1397 302.563 1398.68 345.045C1399.27 359.895 1400.08 393.195 1400.49 419.045C1401.15 461.12 1401.42 466.492 1403.04 470.314C1406.36 478.144 1412.69 480.629 1419.2 476.659C1425.97 472.529 1427.27 465.081 1428.06 425.684C1429.31 363.254 1432.39 338.629 1440.44 326.64C1443.97 321.393 1447.83 318.786 1453.29 317.967C1464.31 316.315 1479.53 330.388 1492.62 354.33C1501.59 370.746 1506.39 377.553 1510.09 379.095C1516.27 381.677 1523.91 380.31 1527.81 375.925C1528.73 374.882 1533.4 366.617 1538.17 357.558C1551.17 332.912 1558.39 323.114 1567.56 317.724C1571.27 315.545 1573.33 315.051 1578.62 315.079C1585.99 315.117 1589.71 316.7 1595.1 322.089C1601.02 328.01 1604.06 335.878 1606.7 352.097C1607.36 356.123 1608.14 380.704 1608.55 410.545C1609.37 469.102 1609.37 469.096 1616.12 471.421C1619.59 472.615 1620.61 472.592 1623.8 471.251C1626.65 470.052 1627.75 468.845 1628.68 465.875C1629.52 463.18 1630.11 442.036 1630.66 394.545C1631.41 331.086 1632.25 304.834 1634.69 269.045C1635.25 260.795 1635.97 230.87 1636.27 202.545C1636.83 151.354 1636.82 151.01 1634.65 145.279C1630.72 134.897 1625.24 130.545 1616.12 130.545C1603.49 130.545 1594.29 140.638 1585.56 164.081C1583.32 170.111 1578.84 181.795 1575.61 190.045C1572.38 198.295 1565.43 216.745 1560.17 231.045C1547.32 265.977 1546.87 267.08 1542.54 274.545C1535.79 286.192 1526.02 293.486 1517.12 293.513C1508.05 293.541 1497.85 285.668 1491.26 273.545C1489.31 269.97 1483.15 254.895 1477.56 240.045C1457.2 185.985 1445.7 156.604 1442.11 149.521C1434.61 134.721 1422.54 127.224 1412.26 130.977ZM623.75 163.985C640.753 167.589 652.364 177.611 658.83 194.264C664.75 209.509 664.735 209.288 665.482 293.045C666.2 373.663 665.649 403.773 663.245 415.201C659.131 434.76 649.981 447.797 635.264 455.071C625.455 459.919 617.002 461.3 606.503 459.769C591.582 457.595 582.755 451.592 577.61 440.119C571.918 427.428 572.118 431.995 572.13 315.045C572.14 216.878 572.298 206.207 573.872 197.842C576.796 182.295 581.886 173.509 591.095 168.112C600.152 162.804 611.445 161.377 623.75 163.985ZM852.62 166.632C865.375 171.467 875.913 180.272 879.616 189.191C880.725 191.861 882.258 195.17 883.024 196.545C885.874 201.661 888.619 218.109 888.619 230.07C888.619 258.631 879.14 279.17 861.697 288.402C849.603 294.803 838.021 296.149 826.266 292.518C813.389 288.54 806.347 280.195 802.677 264.562C800.898 256.986 800.622 252.56 800.639 231.921C800.65 218.789 801.107 204.895 801.656 201.045C804.479 181.233 812.414 170.2 826.75 166.155C837.447 163.137 843.703 163.253 852.62 166.632ZM205.265 167.575C208.646 168.721 212.203 170.533 213.17 171.602C214.138 172.671 215.458 173.545 216.104 173.545C218.013 173.545 224.995 180.621 228.93 186.545C230.94 189.57 233.67 195.195 234.997 199.045C238.022 207.819 240.067 225.545 239.202 235.497C238.228 246.709 234.68 262.564 232.255 266.545C231.082 268.47 229.156 271.845 227.974 274.045C224.834 279.889 212.706 288.096 202.738 291.122C194.357 293.665 176.928 292.254 173.423 288.749C172.761 288.087 171.522 287.533 170.669 287.518C165.471 287.427 155.455 271.078 154.146 260.545C152.998 251.31 152.724 217.715 153.701 205.826C155.016 189.804 158.164 180.836 164.943 173.795C167.194 171.457 169.406 169.545 169.859 169.545C170.312 169.545 172.356 168.777 174.401 167.838C176.446 166.899 179.694 165.81 181.619 165.418C187.212 164.277 198.603 165.317 205.265 167.575ZM1267.59 287.424C1272.38 292.207 1277.54 301.152 1281.63 311.726C1289.47 331.99 1287.98 354.234 1278.14 364.075C1266.67 375.551 1242.74 373.341 1235.93 360.176C1230.88 350.414 1230.14 333.714 1234.14 319.81C1238.22 305.67 1241.52 297.895 1246.12 291.647C1251.49 284.354 1254.03 282.545 1258.89 282.545C1262.13 282.545 1263.46 283.286 1267.59 287.424Z" fill="url(#paint0_linear_1_8)"/>
<defs>
<linearGradient id="paint0_linear_1_8" x1="146.534" y1="-35.2485" x2="1752.74" y2="609.187" gradientUnits="userSpaceOnUse">
<stop stop-color="#B40026"/>
<stop offset="1" stop-color="#92001F"/>
</linearGradient>
</defs>
</svg>
